nColumns=28
nRows=40
DataType=double
version=3
OpenSimVersion=4.1
endheader
time	ground_force_1_vx	ground_force_1_vy	ground_force_1_vz	ground_force_1_px	ground_force_1_py	ground_force_1_pz	ground_force_1_mx	ground_force_1_my	ground_force_1_mz	ground_force_2_vx	ground_force_2_vy	ground_force_2_vz	ground_force_2_px	ground_force_2_py	ground_force_2_pz	ground_force_2_mx	ground_force_2_my	ground_force_2_mz	ground_force_3_vx	ground_force_3_vy	ground_force_3_vz	ground_force_3_px	ground_force_3_py	ground_force_3_pz	ground_force_3_mx	ground_force_3_my	ground_force_3_mz
3.49	-9.04736	147.406	-6.31226	-0.331153	0.006	-0.466834	0	0.779373	0	7.51323	151.376	5.46517	-0.324337	0.006	-0.74584	0	1.41379	0	0	0	0	0	0	0	0	0	0
3.5	-25.1185	191.678	-13.2697	-0.321862	0.006	-0.459235	0	0.68334	0	-2.11644	192.667	12.0513	-0.3179	0.006	-0.753065	0	1.7149	0	0	0	0	0	0	0	0	0	0
3.51	-41.5689	248.072	-19.9156	-0.313319	0.006	-0.453699	0	0.576822	0	-14.7607	244.724	16.4117	-0.310509	0.006	-0.758093	0	1.96443	0	0	0	0	0	0	0	0	0	0
3.52	-53.2075	305.053	-24.3392	-0.307701	0.006	-0.450425	0	0.566633	0	-29.0395	298.645	16.7637	-0.304147	0.006	-0.760645	0	2.04926	0	0	0	0	0	0	0	0	0	0
3.53	-58.9134	352.351	-27.0698	-0.304325	0.006	-0.44827	0	0.608946	0	-41.7071	344.22	14.9341	-0.299621	0.006	-0.76186	0	2.09525	0	0	0	0	0	0	0	0	0	0
3.54	-60.2868	385.611	-28.8842	-0.302294	0.006	-0.446871	0	0.670815	0	-50.9583	378.994	15.0046	-0.295904	0.006	-0.762899	0	2.22703	0	0	0	0	0	0	0	0	0	0
3.55	-59.1196	406.598	-29.5586	-0.30093	0.006	-0.445931	0	0.80152	0	-56.6551	403.502	17.2771	-0.292897	0.006	-0.763895	0	2.39097	0	0	0	0	0	0	0	0	0	0
3.56	-57.4328	419.72	-29.2005	-0.29979	0.006	-0.445283	0	1.02066	0	-59.5035	417.093	19.0004	-0.290647	0.006	-0.764498	0	2.39466	0	0	0	0	0	0	0	0	0	0
3.57	-56.2198	427.932	-28.8217	-0.298766	0.006	-0.444999	0	1.23629	0	-60.9507	421.978	19.8948	-0.288898	0.006	-0.764741	0	2.26961	0	0	0	0	0	0	0	0	0	0
3.58	-55.1187	432.396	-28.8845	-0.297673	0.006	-0.444799	0	1.43088	0	-61.5833	423.5	21.4333	-0.287279	0.006	-0.764941	0	2.20071	0	0	0	0	0	0	0	0	0	0
3.59	-53.4271	434.343	-28.9298	-0.296361	0.006	-0.444511	0	1.67514	0	-62.0605	425.342	22.8236	-0.285519	0.006	-0.765124	0	2.16997	0	0	0	0	0	0	0	0	0	0
3.6	-51.098	434.753	-29.2912	-0.294812	0.006	-0.444267	0	2.0239	0	-62.6275	428.3	22.7729	-0.283458	0.006	-0.764933	0	2.06006	0	0	0	0	0	0	0	0	0	0
3.61	-48.2638	434.032	-30.5358	-0.292789	0.006	-0.44384	0	2.37311	0	-62.5334	430.669	22.0439	-0.281309	0.006	-0.764597	0	1.96647	0	0	0	0	0	0	0	0	0	0
3.62	-45.5929	433.146	-32.2493	-0.290179	0.006	-0.443188	0	2.68793	0	-61.5543	430.534	22.2278	-0.279215	0.006	-0.764476	0	1.94621	0	0	0	0	0	0	0	0	0	0
3.63	-43.7999	432.975	-34.0566	-0.286663	0.006	-0.442517	0	2.92734	0	-60.0413	427.917	23.411	-0.27677	0.006	-0.764513	0	1.86711	0	0	0	0	0	0	0	0	0	0
3.64	-43.5505	433.453	-36.4284	-0.281302	0.006	-0.441461	0	3.05326	0	-58.2793	423.344	25.0045	-0.273879	0.006	-0.76462	0	1.76955	0	0	0	0	0	0	0	0	0	0
3.65	-45.7127	430.793	-38.7861	-0.274022	0.006	-0.440146	0	3.14709	0	-57.1691	418.325	26.7892	-0.270075	0.006	-0.764904	0	1.75237	0	0	0	0	0	0	0	0	0	0
3.66	-48.5628	424.266	-40.3523	-0.266303	0.006	-0.439024	0	3.19908	0	-57.078	413.734	28.2101	-0.265138	0.006	-0.765331	0	1.82271	0	0	0	0	0	0	0	0	0	0
3.67	-49.9836	414.802	-41.0579	-0.259589	0.006	-0.43844	0	3.16878	0	-57.3838	409.185	29.0654	-0.259392	0.006	-0.765502	0	1.98717	0	0	0	0	0	0	0	0	0	0
3.68	-48.3129	405.221	-41.6263	-0.254187	0.006	-0.438167	0	3.02052	0	-58.2682	403.963	29.5289	-0.253188	0.006	-0.765629	0	2.17857	0	0	0	0	0	0	0	0	0	0
3.69	-44.7541	397.478	-42.2725	-0.249559	0.006	-0.437752	0	2.78933	0	-58.9172	396.577	29.6004	-0.247012	0.006	-0.765636	0	2.2689	0	0	0	0	0	0	0	0	0	0
3.7	-41.231	388.773	-42.6815	-0.245404	0.006	-0.437602	0	2.52501	0	-58.416	387.488	30.3619	-0.241058	0.006	-0.765871	0	2.31265	0	0	0	0	0	0	0	0	0	0
3.71	-38.4825	379.283	-42.8016	-0.241477	0.006	-0.437712	0	2.2511	0	-57.0416	377.094	32.1171	-0.235473	0.006	-0.766432	0	2.29013	0	0	0	0	0	0	0	0	0	0
3.72	-36.5986	371.062	-42.4263	-0.237271	0.006	-0.437784	0	2.0346	0	-54.8967	366.851	34.1518	-0.230435	0.006	-0.767019	0	2.23309	0	0	0	0	0	0	0	0	0	0
3.73	-35.4652	363.265	-41.8098	-0.232464	0.006	-0.437792	0	1.91885	0	-52.6259	358.676	36.2883	-0.225627	0.006	-0.767746	0	2.17475	0	0	0	0	0	0	0	0	0	0
3.74	-35.5008	354.661	-41.3996	-0.227161	0.006	-0.437681	0	1.88745	0	-51.2084	351.547	37.8402	-0.220588	0.006	-0.768499	0	2.08511	0	0	0	0	0	0	0	0	0	0
3.75	-36.4858	345.327	-41.1842	-0.221818	0.006	-0.437771	0	1.87496	0	-50.6465	344.561	38.3717	-0.215447	0.006	-0.76908	0	2.07873	0	0	0	0	0	0	0	0	0	0
3.76	-37.148	336.846	-40.4364	-0.216962	0.006	-0.438043	0	1.8607	0	-50.452	338.362	38.313	-0.210173	0.006	-0.769589	0	2.13783	0	0	0	0	0	0	0	0	0	0
3.77	-36.9888	329.954	-39.0029	-0.212588	0.006	-0.438378	0	1.79524	0	-50.3103	332.778	38.3132	-0.204849	0.006	-0.770121	0	2.19939	0	0	0	0	0	0	0	0	0	0
3.78	-36.6874	324.764	-38.0587	-0.208472	0.006	-0.438532	0	1.67929	0	-50.3942	326.207	38.4784	-0.199399	0.006	-0.770496	0	2.21215	0	0	0	0	0	0	0	0	0	0
3.79	-37.201	319.127	-37.7496	-0.20433	0.006	-0.438521	0	1.61937	0	-51.3585	317.161	38.1337	-0.193752	0.006	-0.770642	0	2.23364	0	0	0	0	0	0	0	0	0	0
3.8	-37.8771	310.878	-37.732	-0.200358	0.006	-0.438506	0	1.58987	0	-52.5802	306.196	36.7911	-0.1884	0.006	-0.770422	0	2.32014	0	0	0	0	0	0	0	0	0	0
3.81	-37.5618	300.438	-37.5721	-0.197083	0.006	-0.438642	0	1.53443	0	-53.2816	294.017	35.9936	-0.183515	0.006	-0.770254	0	2.31617	0	0	0	0	0	0	0	0	0	0
3.82	-36.3313	288.72	-36.9821	-0.194196	0.006	-0.439044	0	1.42049	0	-53.3637	280.918	36.5797	-0.178983	0.006	-0.770387	0	2.13226	0	0	0	0	0	0	0	0	0	0
3.83	-34.9857	276.004	-36.1752	-0.191439	0.006	-0.439307	0	1.28862	0	-52.1742	268.457	37.5932	-0.175078	0.006	-0.770749	0	1.84665	0	0	0	0	0	0	0	0	0	0
3.84	-33.5839	262.94	-35.2467	-0.188876	0.006	-0.439584	0	1.19187	0	-50.1061	258.142	38.3347	-0.1723	0.006	-0.771027	0	1.55152	0	0	0	0	0	0	0	0	0	0
3.85	-31.8013	250.31	-33.9218	-0.186285	0.006	-0.440174	0	1.13735	0	-47.9892	249.408	38.443	-0.170579	0.006	-0.77081	0	1.30217	0	0	0	0	0	0	0	0	0	0
3.86	-30.0426	237.451	-32.425	-0.183492	0.006	-0.440838	0	1.08853	0	-46.0197	242.442	37.6316	-0.169327	0.006	-0.77014	0	1.1432	0	0	0	0	0	0	0	0	0	0
3.87	-28.6923	223.314	-30.9024	-0.18067	0.006	-0.441404	0	1.06394	0	-44.1469	238.189	36.0523	-0.168716	0.006	-0.769429	0	1.06649	0	0	0	0	0	0	0	0	0	0
3.88	-27.2493	208.391	-29.1589	-0.17824	0.006	-0.441974	0	1.02377	0	-42.2915	235.582	34.144	-0.168673	0.006	-0.768647	0	1.01096	0	0	0	0	0	0	0	0	0	0
